HIERARCHY
ROOT Hips
{
  OFFSET 0.041574 96.3503 1.58353
  CHANNELS 6 Xposition Yposition Zposition Zrotation Xrotation Yrotation
  JOINT Spine
  {
    OFFSET 0 5.82294 0.122296
    CHANNELS 3 Zrotation Xrotation Yrotation
    JOINT Chest
    {
      OFFSET 0 10.3404 0
      CHANNELS 3 Zrotation Xrotation Yrotation
      JOINT UpperChest
      {
        OFFSET 0 10.3404 0
        CHANNELS 3 Zrotation Xrotation Yrotation
        JOINT Neck
        {
          OFFSET 0 25.1049 -1.53296
          CHANNELS 3 Zrotation Xrotation Yrotation
          JOINT Head
          {
            OFFSET 0 12.7476 0
            CHANNELS 3 Zrotation Xrotation Yrotation
            JOINT Right_Eye
            {
              OFFSET -3.33033 3.45963 8.67403
              CHANNELS 3 Zrotation Xrotation Yrotation
              End Site
              {
                OFFSET 0 0 0
              }
            }
            JOINT Left_Eye
            {
              OFFSET 3.33033 3.45981 8.67403
              CHANNELS 3 Zrotation Xrotation Yrotation
              End Site
              {
                OFFSET 0 0 0
              }
            }
            JOINT Jaw
            {
              OFFSET 0 -0.763539 1.28953
              CHANNELS 3 Zrotation Xrotation Yrotation
              End Site
              {
                OFFSET 0 0 0
              }
            }
          }
          JOINT Neck_Twist_A
          {
            OFFSET 0 6.3737 0
            CHANNELS 3 Zrotation Xrotation Yrotation
            End Site
            {
              OFFSET 0 0 0
            }
          }
        }
        JOINT Left_Shoulder
        {
          OFFSET 0.0957137 19.1492 -0.872779
          CHANNELS 3 Zrotation Xrotation Yrotation
          JOINT Left_UpperArm
          {
            OFFSET 16.7435 0 0
            CHANNELS 3 Zrotation Xrotation Yrotation
            JOINT Left_LowerArm
            {
              OFFSET 2.34464e-05 28.5081 0
              CHANNELS 3 Zrotation Xrotation Yrotation
              JOINT Left_Hand
              {
                OFFSET 0 24.0362 0
                CHANNELS 3 Zrotation Xrotation Yrotation
                JOINT Left_PinkyProximal
                {
                  OFFSET -0.44368 7.28817 -2.9359
                  CHANNELS 3 Zrotation Xrotation Yrotation
                  JOINT Left_PinkyIntermediate
                  {
                    OFFSET 0 3.22726 0
                    CHANNELS 3 Zrotation Xrotation Yrotation
                    JOINT Left_PinkyDistal
                    {
                      OFFSET 0 2.02245 0
                      CHANNELS 3 Zrotation Xrotation Yrotation
                      End Site
                      {
                        OFFSET 0 1.85191 0
                      }
                    }
                  }
                }
                JOINT Left_RingProximal
                {
                  OFFSET -0.952547 8.16155 -1.22424
                  CHANNELS 3 Zrotation Xrotation Yrotation
                  JOINT Left_RingIntermediate
                  {
                    OFFSET 0 4.36305 0
                    CHANNELS 3 Zrotation Xrotation Yrotation
                    JOINT Left_RingDistal
                    {
                      OFFSET 0 2.71155 0
                      CHANNELS 3 Zrotation Xrotation Yrotation
                      End Site
                      {
                        OFFSET 0 2.09573 0
                      }
                    }
                  }
                }
                JOINT Left_MiddleProximal
                {
                  OFFSET -1.28477 8.60977 0.343542
                  CHANNELS 3 Zrotation Xrotation Yrotation
                  JOINT Left_MiddleIntermediate
                  {
                    OFFSET 0 5.12793 0
                    CHANNELS 3 Zrotation Xrotation Yrotation
                    JOINT Left_MiddleDistal
                    {
                      OFFSET 0 2.8284 0
                      CHANNELS 3 Zrotation Xrotation Yrotation
                      End Site
                      {
                        OFFSET 0 2.33461 0
                      }
                    }
                  }
                }
                JOINT Left_IndexProximal
                {
                  OFFSET -0.781543 9.18442 2.65732
                  CHANNELS 3 Zrotation Xrotation Yrotation
                  JOINT Left_IndexIntermediate
                  {
                    OFFSET 0 4.20978 0
                    CHANNELS 3 Zrotation Xrotation Yrotation
                    JOINT Left_IndexDistal
                    {
                      OFFSET 0 2.51392 0
                      CHANNELS 3 Zrotation Xrotation Yrotation
                      End Site
                      {
                        OFFSET 0 2.46092 0
                      }
                    }
                  }
                }
                JOINT Left_ThumbProximal
                {
                  OFFSET 0.0805036 2.88168 2.35145
                  CHANNELS 3 Zrotation Xrotation Yrotation
                  JOINT Left_ThumbIntermediate
                  {
                    OFFSET 0 2.75783 0.381839
                    CHANNELS 3 Zrotation Xrotation Yrotation
                    JOINT Left_ThumbDistal
                    {
                      OFFSET 0 4.45973 -0.686991
                      CHANNELS 3 Zrotation Xrotation Yrotation
                      End Site
                      {
                        OFFSET 0 2.9458 0
                      }
                    }
                  }
                }
              }
            }
          }
        }
        JOINT Right_Shoulder
        {
          OFFSET -0.0957136 19.1494 -0.87278
          CHANNELS 3 Zrotation Xrotation Yrotation
          JOINT Right_UpperArm
          {
            OFFSET -16.7434 -0.000217748 1.51909e-05
            CHANNELS 3 Zrotation Xrotation Yrotation
            JOINT Right_LowerArm
            {
              OFFSET -0.000349226 -28.5085 -3.55672e-05
              CHANNELS 3 Zrotation Xrotation Yrotation
              JOINT Right_Hand
              {
                OFFSET -0.000150856 -24.0364 0.000179922
                CHANNELS 3 Zrotation Xrotation Yrotation
                JOINT Right_PinkyProximal
                {
                  OFFSET 0.443817 -7.28814 2.93586
                  CHANNELS 3 Zrotation Xrotation Yrotation
                  JOINT Right_PinkyIntermediate
                  {
                    OFFSET -4.7083e-05 -3.22689 8.72166e-05
                    CHANNELS 3 Zrotation Xrotation Yrotation
                    JOINT Right_PinkyDistal
                    {
                      OFFSET -2.63942e-05 -2.02249 5.15509e-05
                      CHANNELS 3 Zrotation Xrotation Yrotation
                      End Site
                      {
                        OFFSET -6.32002e-05 -1.85189 1.15411e-05
                      }
                    }
                  }
                }
                JOINT Right_RingProximal
                {
                  OFFSET 0.952744 -8.16143 1.22421
                  CHANNELS 3 Zrotation Xrotation Yrotation
                  JOINT Right_RingIntermediate
                  {
                    OFFSET 0 -4.36287 7.9882e-05
                    CHANNELS 3 Zrotation Xrotation Yrotation
                    JOINT Right_RingDistal
                    {
                      OFFSET 3.02166e-05 -2.71147 0
                      CHANNELS 3 Zrotation Xrotation Yrotation
                      End Site
                      {
                        OFFSET 0 -2.09579 5.56546e-05
                      }
                    }
                  }
                }
                JOINT Right_MiddleProximal
                {
                  OFFSET 1.28487 -8.60977 -0.343593
                  CHANNELS 3 Zrotation Xrotation Yrotation
                  JOINT Right_MiddleIntermediate
                  {
                    OFFSET 0 -5.1276 9.51028e-05
                    CHANNELS 3 Zrotation Xrotation Yrotation
                    JOINT Right_MiddleDistal
                    {
                      OFFSET -1.31315e-05 -2.82835 2.29473e-05
                      CHANNELS 3 Zrotation Xrotation Yrotation
                      End Site
                      {
                        OFFSET 0 -2.33453 5.35258e-05
                      }
                    }
                  }
                }
                JOINT Right_IndexProximal
                {
                  OFFSET 0.782229 -9.18393 -2.65746
                  CHANNELS 3 Zrotation Xrotation Yrotation
                  JOINT Right_IndexIntermediate
                  {
                    OFFSET -7.0805e-05 -4.21014 -0.000131586
                    CHANNELS 3 Zrotation Xrotation Yrotation
                    JOINT Right_IndexDistal
                    {
                      OFFSET 3.24678e-05 -2.51392 -5.75677e-05
                      CHANNELS 3 Zrotation Xrotation Yrotation
                      End Site
                      {
                        OFFSET -2.39845e-05 -2.46094 6.27113e-05
                      }
                    }
                  }
                }
                JOINT Right_ThumbProximal
                {
                  OFFSET -0.0803355 -2.88163 -2.35147
                  CHANNELS 3 Zrotation Xrotation Yrotation
                  JOINT Right_ThumbIntermediate
                  {
                    OFFSET 0 -2.75778 -0.38184
                    CHANNELS 3 Zrotation Xrotation Yrotation
                    JOINT Right_ThumbDistal
                    {
                      OFFSET -8.16205e-05 -4.45947 0.687077
                      CHANNELS 3 Zrotation Xrotation Yrotation
                      End Site
                      {
                        OFFSET -2.0229e-05 -2.94581 9.55168e-05
                      }
                    }
                  }
                }
              }
            }
          }
        }
      }
    }
  }
  JOINT Left_UpperLeg
  {
    OFFSET 8.61033 -5.3458 -1.14707
    CHANNELS 3 Zrotation Xrotation Yrotation
    JOINT Left_LowerLeg
    {
      OFFSET 0.000952408 41.3345 0.00779267
      CHANNELS 3 Zrotation Xrotation Yrotation
      JOINT Left_Foot
      {
        OFFSET 0 41.404 0
        CHANNELS 3 Zrotation Xrotation Yrotation
        JOINT Left_Toes
        {
          OFFSET 0 7.22481 -11.8066
          CHANNELS 3 Zrotation Xrotation Yrotation
          End Site
          {
            OFFSET 0.100262 6.42348 1.6844
          }
        }
      }
    }
  }
  JOINT Right_UpperLeg
  {
    OFFSET -8.61033 -5.34581 -1.14707
    CHANNELS 3 Zrotation Xrotation Yrotation
    JOINT Right_LowerLeg
    {
      OFFSET -0.00243634 -41.3343 0.0557459
      CHANNELS 3 Zrotation Xrotation Yrotation
      JOINT Right_Foot
      {
        OFFSET 7.58749e-05 -41.404 -1.69673e-05
        CHANNELS 3 Zrotation Xrotation Yrotation
        JOINT Right_Toes
        {
          OFFSET 1.63655e-05 -7.2248 11.807
          CHANNELS 3 Zrotation Xrotation Yrotation
          End Site
          {
            OFFSET -0.100316 -6.42306 -1.68439
          }
        }
      }
    }
  }
}
MOTION
Frames:	6
Frame Time:	0.00833333
-7.17302 93.1015 237.918 -3.9453 -0.649336 -5.02739 1.09014 1.15574 0.780125 2.16508 2.32602 1.53856 2.16508 2.32601 1.53856 0.744525 -5.60438 1.14271 -0.355931 -6.3474 -0.420415 180 -1.28938e-29 90 3.47873e-16 2.13011e-32 -90 2.12196e-14 26.0711 -90 1.80537e-16 0 -0 -0.189163 3.39024 5.03906 -164.483 -1.03244 33.7169 1.12135e-06 28.9773 3.81723e-06 5.23857 -4.29889 -6.3651 -38.9233 -21.3844 58.2721 -1.27435e-06 34.8175 4.34157e-06 3.01452e-06 16.3675 9.74482e-08 -32.1003 -17.1438 68.5402 -1.64153e-06 46.0074 4.09059e-06 -1.66866e-06 10.3881 -3.30244e-06 -25.8221 -7.55302 80.976 3.31839e-06 39.8736 -2.18168e-06 -3.72998e-06 3.83668 9.83598e-06 -27.5237 -5.49731 89.3008 5.63088e-06 30.2319 -3.87428e-06 -2.07653e-06 9.54348 5.87002e-07 -32.3343 34.8831 -165.993 -0.104219 16.6347 0.0127082 -5.09498e-06 19.7471 -1.3319e-06 -177.587 -5.05643 -178.183 -163.76 19.0086 26.5446 0.000110995 35.5137 7.28265e-06 8.82996 -2.75847 -7.00971 -38.9233 -21.3844 58.2721 -6.88208e-06 34.8175 1.00962e-05 -4.84908e-07 16.3675 -6.19219e-06 -32.1003 -17.1438 68.5402 -1.19683e-06 46.0074 6.66419e-06 3.61698e-06 10.3881 -6.71703e-06 -25.822 -7.55302 80.976 -3.40717e-06 39.8736 9.53688e-06 -1.59671e-06 3.83668 -2.62364e-06 -27.5237 -5.49731 89.3008 2.07745e-06 30.2319 6.47294e-06 1.41864e-06 9.54348 -5.40084e-06 -32.3343 34.8831 -165.993 -0.104339 16.6365 0.0126787 -8.81155e-06 19.7471 4.72564e-06 -171.822 23.6074 168.468 -0.000239641 5.7833 0.0897509 7.90382 -1.1243 3.19684 180 -81.6105 180 7.71974 18.7596 7.9542 -5.81773e-05 2.14747 -0.0340198 -5.64403 -13.9024 -12.9571 180 -88.5812 180 
-7.14998 92.9458 238.993 -3.97047 -0.597777 -5.04736 1.08495 1.15039 0.764272 2.15513 2.31494 1.50707 2.15513 2.31494 1.50707 0.787667 -5.6411 1.15185 -0.346996 -6.39199 -0.414173 180 -1.28938e-29 90 1.98785e-16 1.21721e-32 -90 2.12196e-14 26.0711 -90 -1.15699e-16 0 9.93923e-17 -0.260856 3.31375 5.09281 -164.43 -1.14726 33.9945 -8.98899e-06 28.2834 1.1134e-05 4.89611 -4.41415 -6.44031 -38.9233 -21.3844 58.2721 -1.59608e-06 34.8175 4.28382e-06 1.80646e-06 16.3675 1.42022e-06 -32.1003 -17.1438 68.5402 -1.23482e-06 46.0074 3.18533e-06 -3.31796e-06 10.3881 -2.32302e-06 -25.8221 -7.55302 80.976 3.58617e-06 39.8736 -1.92084e-06 -3.87402e-06 3.83669 8.58194e-06 -27.5237 -5.49731 89.3008 5.78798e-06 30.2319 -3.42704e-06 -2.21026e-06 9.54348 -3.96307e-07 -32.3343 34.8831 -165.993 -0.104216 16.6347 0.012708 -5.2216e-06 19.7471 -2.30504e-06 -177.448 -5.02986 -178.176 -163.684 19.0651 26.6741 8.49671e-05 35.5595 5.73701e-06 8.83507 -2.72989 -6.97842 -38.9233 -21.3844 58.2721 -4.25365e-06 34.8175 7.95304e-06 2.49654e-07 16.3675 -6.30606e-06 -32.1003 -17.1438 68.5402 1.76317e-06 46.0074 4.60864e-06 2.33296e-06 10.3881 -6.23129e-06 -25.8221 -7.55302 80.976 1.60291e-06 39.8736 5.37117e-06 -2.25551e-06 3.83668 -1.98265e-06 -27.5237 -5.49731 89.3008 4.03161e-06 30.2319 6.94946e-06 2.30473e-06 9.54348 -6.34703e-06 -32.3343 34.8831 -165.993 -0.104341 16.6365 0.0126841 -6.60571e-06 19.7471 3.8578e-06 -171.959 23.6442 169.197 9.25461e-06 4.84572 0.0960775 8.23588 -1.38419 2.68424 180 -81.668 180 7.68425 19.2514 7.59334 2.52648e-06 2.46762 -0.029564 -5.31443 -14.0086 -12.5041 180 -87.9158 180 
-7.1173 92.797 240.093 -3.97346 -0.570892 -5.06088 1.07421 1.14489 0.756387 2.13387 2.30366 1.49163 2.13387 2.30366 1.49163 0.848481 -5.6632 1.14647 -0.331631 -6.4376 -0.417853 180 -1.28938e-29 90 -4.72114e-16 -2.89086e-32 -90 2.12196e-14 26.0711 -90 -4.81432e-17 0 -4.96962e-17 -0.301765 3.23278 5.12728 -164.412 -1.25661 34.2834 -1.13151e-05 27.5181 2.09695e-05 4.57308 -4.5388 -6.53352 -38.9233 -21.3844 58.2721 -9.36992e-07 34.8175 2.93253e-06 -6.55024e-07 16.3675 2.60667e-06 -32.1003 -17.1438 68.5402 2.45538e-07 46.0074 4.9739e-07 -5.55216e-06 10.3881 -8.28154e-07 -25.8221 -7.55302 80.976 3.95785e-06 39.8736 -1.40651e-06 -3.36459e-06 3.83669 6.1601e-06 -27.5237 -5.49731 89.3008 5.17768e-06 30.2319 -1.99301e-06 -2.07735e-06 9.54348 -1.95445e-06 -32.3343 34.8831 -165.993 -0.104213 16.6347 0.0127078 -5.38821e-06 19.7471 -3.09785e-06 -177.306 -5.00913 -178.158 -163.629 19.0998 26.8249 6.17485e-05 35.5213 2.19236e-06 8.8149 -2.70352 -6.9479 -38.9233 -21.3844 58.2721 -3.22071e-07 34.8175 4.29832e-06 1.70188e-06 16.3675 -7.02461e-06 -32.1003 -17.1438 68.5402 5.3946e-06 46.0074 1.70926e-06 -2.27764e-07 10.3881 -5.1043e-06 -25.822 -7.55302 80.976 9.76598e-06 39.8736 -2.02023e-06 -2.80547e-06 3.83668 -4.28165e-07 -27.5237 -5.49731 89.3008 5.51557e-06 30.2319 7.14483e-06 3.59478e-06 9.54348 -6.62369e-06 -32.3343 34.8831 -165.993 -0.104341 16.6365 0.0126913 -2.89865e-06 19.7471 2.21103e-06 -172.114 23.6997 169.931 0.000253463 4.32046 0.103623 8.63758 -1.64212 2.06493 180 -81.7174 180 7.61577 19.7555 7.0854 3.24111e-05 2.81427 -0.0234182 -4.89388 -14.0885 -11.8504 -180 -87.1676 -180 
-7.08359 92.6544 241.214 -3.98317 -0.569217 -5.06492 1.05457 1.1417 0.750388 2.09469 2.29692 1.48007 2.09469 2.29692 1.48007 0.916153 -5.67761 1.13024 -0.315676 -6.47924 -0.432112 180 -1.28938e-29 90 -2.60905e-16 -1.59758e-32 -90 2.12196e-14 26.0711 -90 6.80216e-16 0 -4.96962e-17 -0.314979 3.16041 5.14796 -164.427 -1.34779 34.5867 -7.07711e-06 26.7015 2.91978e-05 4.27609 -4.66179 -6.66398 -38.9233 -21.3844 58.2721 2.73926e-07 34.8175 1.11619e-06 -3.12337e-06 16.3675 3.21137e-06 -32.1003 -17.1438 68.5402 2.44486e-06 46.0074 -3.0894e-06 -7.5835e-06 10.3881 6.45288e-07 -25.8221 -7.55302 80.976 4.2612e-06 39.8736 -8.26955e-07 -2.48155e-06 3.83669 3.53112e-06 -27.5237 -5.49731 89.3008 4.1358e-06 30.2319 -4.30829e-07 -1.79245e-06 9.54349 -3.35666e-06 -32.3343 34.8831 -165.993 -0.10421 16.6348 0.0127079 -5.61596e-06 19.7471 -3.66013e-06 -177.182 -4.99857 -178.139 -163.607 19.0935 26.9666 4.5629e-05 35.4169 -8.41869e-07 8.78509 -2.68225 -6.92134 -38.9233 -21.3844 58.2721 3.4434e-06 34.8175 6.43948e-07 3.19029e-06 16.3675 -7.679e-06 -32.1003 -17.1438 68.5402 8.51039e-06 46.0074 -1.117e-06 -2.89336e-06 10.3881 -3.95368e-06 -25.8221 -7.55302 80.976 1.72331e-05 39.8736 -9.15417e-06 -3.04137e-06 3.83668 1.44487e-06 -27.5237 -5.49731 89.3008 6.02925e-06 30.2319 7.12257e-06 4.76013e-06 9.54348 -6.27057e-06 -32.3343 34.8831 -165.993 -0.10434 16.6364 0.0126976 8.47874e-07 19.7471 3.50507e-07 -172.294 23.7822 170.552 0.000378621 4.22213 0.109795 8.91511 -1.86627 1.56295 -180 -81.7289 -180 7.51572 20.2067 6.51219 3.07003e-05 3.29655 -0.0172239 -4.42796 -14.144 -11.0993 -180 -86.3166 -180 
-7.05102 92.5178 242.357 -3.9931 -0.585694 -5.08575 1.03491 1.13689 0.748196 2.05549 2.28703 1.47619 2.05549 2.28703 1.47619 0.979881 -5.69124 1.10679 -0.304967 -6.5119 -0.457607 180 -1.28938e-29 90 -3.23025e-16 -1.97796e-32 -90 2.12196e-14 26.0711 -90 1.25793e-16 0 -9.93923e-17 -0.303573 3.10972 5.16036 -164.474 -1.40827 34.9071 2.23105e-06 25.8541 3.18181e-05 4.01171 -4.77205 -6.85096 -38.9233 -21.3844 58.2721 1.60767e-06 34.8175 -3.36689e-07 -4.35205e-06 16.3675 2.78892e-06 -32.1003 -17.1438 68.5402 5.00846e-06 46.0074 -6.69121e-06 -8.62423e-06 10.3881 1.56044e-06 -25.8221 -7.55302 80.976 4.32402e-06 39.8736 -3.70445e-07 -1.50479e-06 3.83669 1.65562e-06 -27.5237 -5.49731 89.3008 2.99816e-06 30.2319 4.00892e-07 -1.47019e-06 9.54349 -3.87218e-06 -32.3343 34.8831 -165.993 -0.10421 16.6348 0.0127086 -5.92604e-06 19.7471 -3.94166e-06 -177.095 -5.00257 -178.125 -163.632 19.0274 27.0688 4.09216e-05 35.2644 -8.69467e-07 8.7613 -2.66897 -6.90197 -38.9233 -21.3844 58.2721 5.57351e-06 34.8175 -1.49814e-06 4.03337e-06 16.3675 -7.60037e-06 -32.1003 -17.1438 68.5402 9.92343e-06 46.0074 -2.95317e-06 -4.49199e-06 10.3881 -3.39707e-06 -25.8221 -7.55302 80.976 2.01554e-05 39.8736 -1.25475e-05 -2.75796e-06 3.83668 3.04151e-06 -27.5237 -5.49731 89.3008 5.07254e-06 30.2319 6.94623e-06 5.2721e-06 9.54348 -5.3274e-06 -32.3343 34.8831 -165.993 -0.10434 16.6364 0.0127007 3.1721e-06 19.7471 -1.1586e-06 -172.51 23.9022 170.942 0.000269804 4.56536 0.112015 8.87904 -2.0249 1.40245 -180 -81.6725 -180 7.37995 20.5402 5.95722 2.6943e-06 4.02359 -0.0126238 -3.96265 -14.178 -10.3542 -180 -85.3425 -180 
-7.01505 92.3841 243.524 -4.03556 -0.623716 -5.10321 1.02613 1.13214 0.754391 2.03788 2.27751 1.48879 2.03788 2.27751 1.48879 1.03756 -5.69646 1.07584 -0.298455 -6.53413 -0.498692 180 -1.28938e-29 90 -0 -0 -90 2.12196e-14 26.0711 -90 -3.57191e-17 0 9.93923e-17 -0.234176 3.10541 5.15973 -164.586 -1.41094 35.2656 2.04702e-05 24.9488 2.58406e-05 3.78779 -4.85493 -7.11742 -38.9233 -21.3844 58.2721 3.424e-06 34.8175 -1.31942e-06 -3.43489e-06 16.3675 5.02734e-07 -32.1003 -17.1438 68.5402 9.0636e-06 46.0074 -1.12979e-05 -8.21942e-06 10.3881 1.65291e-06 -25.8221 -7.55302 80.976 3.91672e-06 39.8736 1.37859e-07 -1.49152e-07 3.83668 7.55343e-07 -27.5237 -5.49731 89.3008 1.58861e-06 30.2319 9.90127e-08 -1.13048e-06 9.54349 -3.09888e-06 -32.3343 34.8831 -165.993 -0.104217 16.6348 0.0127104 -6.3456e-06 19.7471 -3.8984e-06 -177.078 -5.03705 -178.127 -163.744 18.8964 27.1066 5.58662e-05 35.0609 4.79021e-06 8.75554 -2.65903 -6.89285 -38.9233 -21.3844 58.2721 5.37423e-06 34.8175 -1.48601e-06 3.8478e-06 16.3675 -6.34625e-06 -32.1003 -17.1438 68.5402 8.50057e-06 46.0074 -3.1001e-06 -4.43928e-06 10.3881 -3.90759e-06 -25.8221 -7.55302 80.976 1.56341e-05 39.8736 -9.98003e-06 -1.5388e-06 3.83668 4.44889e-06 -27.5237 -5.49731 89.3008 1.39719e-06 30.2319 6.57369e-06 4.79404e-06 9.54348 -3.27761e-06 -32.3343 34.8831 -165.993 -0.10434 16.6364 0.0126988 3.39812e-06 19.7471 -2.38817e-06 -172.729 24.0685 170.947 0.000140209 5.53123 0.109357 8.4418 -2.24218 1.75257 -180 -81.465 -180 7.23242 20.7544 5.44028 -5.17176e-05 5.04083 -0.0103702 -3.50435 -14.2368 -9.63201 -180 -84.2685 -180 
